<svg xmlns="http://www.w3.org/2000/svg" width="12" height="9.133" viewBox="0 0 12 9.133">
  <path id="Fill_4_Copy" data-name="Fill 4 Copy" d="M9.072,1.334l.077-.08L9.9.469,9.926.441a1.575,1.575,0,0,1,.223-.205,1.111,1.111,0,0,1,1.23-.092A1.188,1.188,0,0,1,12,1.167a1.226,1.226,0,0,1-.27.782c-.041.051-.073.085-.135.15l-.023.024L5.319,8.669a1.162,1.162,0,0,1-1.855.006L2.6,7.765C1.492,6.61,1,6.1.388,5.457A1.206,1.206,0,0,1,.055,4.22a1.149,1.149,0,0,1,1.833-.584,1.592,1.592,0,0,1,.178.169l.025.027.553.578c.841.878,1.3,1.358,1.746,1.83C5.645,4.921,6.785,3.727,9.072,1.334Z" fill="#23233f"/>
</svg>
